<?xml version="1.0" standalone="no"?>
<!DOCTYPE svg PUBLIC "-//W3C//DTD SVG 20010904//EN"
 "http://www.w3.org/TR/2001/REC-SVG-20010904/DTD/svg10.dtd">
<svg version="1.0" xmlns="http://www.w3.org/2000/svg"
 width="500.000000pt" height="500.000000pt" viewBox="0 0 500.000000 500.000000"
 preserveAspectRatio="xMidYMid meet">

<g transform="translate(0.000000,500.000000) scale(0.100000,-0.100000)"
fill="#000000" stroke="none">
<path d="M2480 3317 c0 -54 -16 -87 -70 -142 -27 -27 -49 -53 -49 -58 -1 -4
-8 -21 -17 -38 -8 -17 -14 -33 -12 -35 8 -7 108 45 108 57 0 7 9 9 26 5 21 -6
25 -4 21 8 -4 9 -1 18 5 22 7 4 8 3 4 -4 -4 -7 -2 -12 4 -12 15 0 50 78 50
113 0 33 -20 75 -49 101 -21 19 -21 19 -21 -17z"/>
<path d="M2616 3201 c-7 -43 -60 -116 -91 -125 -17 -5 -18 -7 -5 -16 16 -10
20 -100 8 -168 l-6 -34 55 54 c96 95 124 186 84 274 -26 57 -37 61 -45 15z"/>
<path d="M2028 2887 c-154 -58 -239 -173 -246 -334 -4 -92 12 -156 56 -221 46
-67 654 -683 671 -680 21 4 78 89 91 136 36 131 -19 230 -137 246 -135 18
-233 134 -232 276 0 76 14 122 54 174 29 38 117 96 146 96 33 0 69 40 69 75 0
30 -11 45 -77 111 -107 104 -153 127 -268 131 -59 2 -103 -1 -127 -10z"/>
<path d="M2783 2890 c-41 -9 -102 -37 -136 -64 -18 -14 -18 -17 2 -81 24 -77
25 -105 7 -158 -31 -85 -82 -132 -173 -156 -60 -16 -93 -59 -93 -122 0 -73 33
-106 127 -124 39 -8 85 -21 101 -29 71 -37 142 -144 142 -214 0 -32 3 -30 133
105 224 231 251 262 284 326 40 79 49 166 25 252 -16 57 -19 60 -49 60 -20 -1
-29 3 -26 11 3 7 11 10 18 8 7 -3 16 0 20 6 3 6 3 10 -2 9 -22 -4 -33 3 -33
19 0 14 2 15 10 2 5 -8 10 -10 10 -4 0 5 -7 19 -16 30 -8 10 -13 12 -9 4 3 -8
-2 -5 -11 8 -16 21 -52 33 -39 12 4 -6 -1 -7 -11 -3 -13 5 -15 3 -9 -7 5 -8 4
-11 -2 -7 -6 4 -9 20 -7 37 3 26 1 30 -22 30 -16 0 -23 4 -18 11 8 14 -38 -10
-48 -24 -4 -6 -12 -4 -23 6 -15 16 -14 17 14 17 73 0 26 27 -61 35 -10 1 -21
4 -24 8 -9 8 -25 8 -81 -3z m64 -16 c-3 -3 -12 -4 -19 -1 -8 3 -5 6 6 6 11 1
17 -2 13 -5z m44 -1 c-11 -5 -11 -7 0 -14 10 -6 8 -9 -8 -9 -13 0 -23 4 -23 9
0 10 18 19 35 19 6 0 4 -2 -4 -5z m203 -108 c-4 -8 -11 -15 -16 -15 -6 0 -5 6
2 15 7 8 14 15 16 15 2 0 1 -7 -2 -15z"/>
<path d="M3056 2821 c-4 -5 -2 -12 3 -15 5 -4 12 -2 15 3 4 5 2 12 -3 15 -5 4
-12 2 -15 -3z"/>
</g>
</svg>
